<svg xmlns="http://www.w3.org/2000/svg" xmlns:xlink="http://www.w3.org/1999/xlink" width="2000" zoomAndPan="magnify" viewBox="0 0 1500 1499.999933" height="2000" preserveAspectRatio="xMidYMid meet" version="1.0"><defs><clipPath id="1d3298d13b"><path d="M 119.988281 119.988281 L 1379.988281 119.988281 L 1379.988281 1379.988281 L 119.988281 1379.988281 Z M 119.988281 119.988281 " clip-rule="nonzero"/></clipPath></defs><g clip-path="url(#1d3298d13b)"><path fill="#e61f26" d="M 875.433594 224.386719 C 931.058594 237.625 984.183594 259.679688 1032.871094 289.660156 L 1135.179688 244.222656 L 1255.757812 364.796875 L 1210.332031 467.074219 C 1240.324219 515.765625 1262.375 568.914062 1275.613281 624.554688 L 1379.988281 664.730469 L 1379.988281 835.25 L 1275.589844 875.4375 C 1266.925781 911.835938 1254.484375 947.167969 1238.523438 980.882812 C 1209.042969 951.761719 1171.863281 930.421875 1130.316406 920.179688 C 1153.605469 868.222656 1166.570312 810.628906 1166.570312 749.996094 C 1166.570312 519.917969 980.0625 333.410156 749.984375 333.410156 C 519.910156 333.410156 333.402344 519.921875 333.402344 749.996094 C 333.402344 915.1875 429.550781 1057.914062 568.9375 1125.28125 L 568.9375 1176.613281 C 568.9375 1202.6875 590.113281 1223.863281 616.1875 1223.863281 L 853.222656 1223.863281 C 859.519531 1242 867.976562 1259.125 878.300781 1274.929688 C 877.339844 1275.164062 876.382812 1275.394531 875.425781 1275.621094 L 835.253906 1379.988281 L 664.730469 1379.988281 L 624.550781 1275.589844 C 568.921875 1262.351562 515.796875 1240.296875 467.109375 1210.320312 L 364.800781 1255.757812 L 244.222656 1135.179688 L 289.648438 1032.90625 C 259.65625 984.210938 237.609375 931.0625 224.367188 875.425781 L 119.988281 835.253906 L 119.988281 664.730469 L 224.378906 624.550781 C 237.617188 568.917969 259.671875 515.789062 289.652344 467.097656 L 244.21875 364.800781 L 364.796875 244.222656 L 467.105469 289.660156 C 515.792969 259.679688 568.921875 237.625 624.542969 224.386719 L 664.730469 119.988281 L 835.25 119.988281 Z M 749.988281 375.40625 C 543.09375 375.40625 375.40625 543.097656 375.40625 749.996094 C 375.40625 891.214844 453.546875 1014.148438 568.941406 1077.976562 L 568.941406 1032.476562 C 568.941406 1020.109375 573.707031 1008.847656 581.496094 1000.421875 C 572.792969 986.734375 558.445312 974.75 543.332031 962.132812 C 503.71875 929.054688 460.015625 892.558594 465.484375 811.316406 L 470.871094 731.324219 C 472.996094 699.804688 488.761719 673.480469 511.769531 654.742188 C 528.871094 640.8125 550.042969 631.136719 572.460938 626.789062 L 572.460938 597.097656 C 572.460938 540.667969 636.625 505.667969 684.066406 538.167969 C 715.117188 488.527344 788.90625 495.777344 810.722656 548.882812 C 838.480469 533.347656 873.320312 538.246094 895.867188 560.792969 C 901.445312 566.367188 906.101562 572.875 909.59375 580.054688 C 920.3125 573.609375 932.855469 569.976562 946.222656 569.976562 C 965.933594 569.976562 983.78125 577.972656 996.660156 590.851562 C 1009.585938 603.78125 1017.609375 621.632812 1017.609375 641.285156 L 1017.609375 722.640625 C 1017.609375 728.308594 1016.941406 733.824219 1015.683594 739.121094 L 1017.738281 750.992188 C 1029.3125 817.746094 1038.425781 870.335938 1034.160156 916.804688 C 1047.171875 914.5625 1060.542969 913.378906 1074.191406 913.378906 C 1078.480469 913.378906 1082.742188 913.5 1086.976562 913.730469 C 1111.054688 864.265625 1124.566406 808.707031 1124.566406 749.988281 C 1124.570312 543.09375 956.882812 375.40625 749.988281 375.40625 Z M 774.019531 744.988281 C 765.328125 757.3125 753.164062 766.921875 739.003906 772.445312 L 739.386719 772.851562 C 740.96875 773.125 742.722656 773.269531 744.648438 773.269531 C 760.375 773.269531 773.425781 760.628906 774.019531 744.988281 Z M 916.804688 724.472656 C 919.15625 761.273438 975.617188 760.84375 975.617188 722.644531 L 975.617188 641.292969 C 975.617188 602.75 916.828125 602.652344 916.828125 641.289062 C 916.800781 641.292969 916.980469 717.429688 916.804688 724.472656 Z M 816.039062 611.230469 L 816.039062 722.640625 C 816.039062 761.835938 874.828125 760.890625 874.828125 722.640625 L 874.910156 611.230469 C 874.910156 585.820312 843.554688 571.625 824.6875 590.488281 C 819.355469 595.828125 816.039062 603.171875 816.039062 611.230469 Z M 725.492188 889.890625 C 725.523438 841.367188 728.597656 777.640625 622.0625 777.640625 L 590.550781 777.640625 C 562.929688 777.640625 562.929688 735.640625 590.550781 735.640625 L 711.285156 735.640625 C 756.894531 735.640625 756.890625 666.195312 711.285156 666.195312 L 599.25 666.195312 C 559.917969 666.195312 515.597656 691.246094 512.710938 734.109375 L 507.324219 814.101562 C 503.285156 874.0625 538.40625 903.390625 570.242188 929.972656 C 590.808594 947.148438 610.304688 963.429688 621.664062 985.21875 C 716.402344 985.109375 811.125 984.675781 905.867188 984.9375 C 929.082031 960.867188 957.402344 941.757812 989.089844 929.363281 C 996.945312 889.214844 990.921875 843.421875 981.023438 784.917969 C 953.210938 800.472656 918.476562 795.734375 895.832031 773.125 C 871.640625 797.277344 833.539062 800.894531 805.234375 781.570312 C 795.332031 797.402344 779.492188 808.996094 761.039062 813.363281 C 767.863281 838.15625 767.347656 865.25 767.332031 889.890625 C 767.328125 917.40625 725.492188 917.40625 725.492188 889.890625 Z M 715.25 575.871094 L 715.25 624.300781 C 739.28125 625.539062 760.71875 637.972656 774.039062 656.886719 L 774.039062 575.871094 C 774.042969 536.679688 715.25 537.621094 715.25 575.871094 Z M 614.464844 624.199219 L 673.25 624.199219 L 673.25 597.101562 C 673.25 558 614.464844 558.886719 614.464844 597.097656 Z M 873.574219 1027.058594 C 816.390625 1027.058594 730.605469 1027.113281 616.1875 1027.222656 C 613.296875 1027.226562 610.945312 1029.582031 610.945312 1032.472656 L 610.945312 1176.605469 C 610.945312 1179.496094 613.300781 1181.855469 616.195312 1181.855469 L 842.921875 1181.855469 C 841.238281 1170.554688 840.359375 1158.988281 840.359375 1147.21875 C 840.359375 1103.28125 852.492188 1062.179688 873.574219 1027.058594 Z M 673.617188 1128.554688 C 660.355469 1128.554688 649.601562 1117.804688 649.601562 1104.542969 C 649.601562 1091.28125 660.355469 1080.53125 673.617188 1080.53125 C 686.875 1080.53125 697.628906 1091.28125 697.628906 1104.542969 C 697.628906 1117.804688 686.875 1128.554688 673.617188 1128.554688 Z M 1074.199219 955.378906 C 968.246094 955.378906 882.359375 1041.269531 882.359375 1147.21875 C 882.359375 1253.171875 968.246094 1339.0625 1074.199219 1339.0625 C 1180.148438 1339.0625 1266.039062 1253.171875 1266.039062 1147.21875 C 1266.039062 1041.269531 1180.152344 955.378906 1074.199219 955.378906 Z M 1182.585938 1109.960938 C 1144.757812 1148.136719 1107.1875 1186.566406 1069.1875 1224.570312 C 1058.078125 1235.675781 1040.058594 1235.675781 1028.949219 1224.570312 L 965.902344 1161.523438 C 939.4375 1135.0625 979.675781 1094.820312 1006.140625 1121.285156 L 1049.007812 1164.148438 L 1142.285156 1069.9375 C 1168.527344 1043.429688 1208.917969 1083.386719 1182.585938 1109.960938 Z M 1182.585938 1109.960938 " fill-opacity="1" fill-rule="evenodd"/></g></svg>