<svg xmlns="http://www.w3.org/2000/svg" xmlns:xlink="http://www.w3.org/1999/xlink" width="2000" zoomAndPan="magnify" viewBox="0 0 1500 1499.999933" height="2000" preserveAspectRatio="xMidYMid meet" version="1.0"><defs><clipPath id="03a23c0b43"><path d="M 1263 1059 L 1323.101562 1059 L 1323.101562 1131 L 1263 1131 Z M 1263 1059 " clip-rule="nonzero"/></clipPath><clipPath id="2a8b0504b7"><path d="M 1263 905 L 1323.101562 905 L 1323.101562 977 L 1263 977 Z M 1263 905 " clip-rule="nonzero"/></clipPath><clipPath id="2417dc928f"><path d="M 562 707 L 1323.101562 707 L 1323.101562 824 L 562 824 Z M 562 707 " clip-rule="nonzero"/></clipPath><clipPath id="bfa9e2618d"><path d="M 562 1213 L 1323.101562 1213 L 1323.101562 1329 L 562 1329 Z M 562 1213 " clip-rule="nonzero"/></clipPath><clipPath id="96f42b46e1"><path d="M 117.851562 730 L 695 730 L 695 1307 L 117.851562 1307 Z M 117.851562 730 " clip-rule="nonzero"/></clipPath></defs><g clip-path="url(#03a23c0b43)"><path fill="#e61f26" d="M 1263.71875 1130.972656 L 1323.070312 1130.972656 L 1323.070312 1059.402344 L 1263.71875 1059.402344 L 1263.71875 1130.972656 " fill-opacity="1" fill-rule="nonzero"/></g><g clip-path="url(#2a8b0504b7)"><path fill="#e61f26" d="M 1263.71875 905.65625 L 1263.71875 976.785156 L 1323.070312 976.785156 L 1323.070312 905.65625 L 1263.71875 905.65625 " fill-opacity="1" fill-rule="nonzero"/></g><g clip-path="url(#2417dc928f)"><path fill="#e61f26" d="M 646.71875 760.011719 L 1190.964844 760.011719 C 1222.382812 760.011719 1249.121094 779.878906 1259.324219 807.753906 C 1261.113281 812.621094 1262.367188 817.734375 1263.089844 823.039062 L 1323.070312 823.039062 L 1323.070312 780.101562 C 1323.070312 739.921875 1290.488281 707.339844 1250.285156 707.339844 L 587.394531 707.339844 C 578.484375 707.339844 569.976562 708.941406 562.097656 711.859375 C 588.117188 725.136719 612.222656 741.617188 634.132812 761.078125 C 638.210938 760.386719 642.417969 760.011719 646.71875 760.011719 " fill-opacity="1" fill-rule="nonzero"/></g><g clip-path="url(#bfa9e2618d)"><path fill="#e61f26" d="M 1259.136719 1228.875 C 1248.839844 1256.527344 1222.191406 1276.179688 1190.964844 1276.179688 L 646.71875 1276.179688 C 642.417969 1276.179688 638.210938 1275.800781 634.132812 1275.078125 C 612.222656 1294.605469 588.117188 1311.050781 562.097656 1324.328125 C 569.976562 1327.25 578.515625 1328.851562 587.394531 1328.851562 L 1250.285156 1328.851562 C 1290.488281 1328.851562 1323.070312 1296.265625 1323.070312 1256.089844 L 1323.070312 1213.585938 L 1263.027344 1213.585938 C 1262.273438 1218.859375 1260.988281 1224.007812 1259.136719 1228.875 " fill-opacity="1" fill-rule="nonzero"/></g><path fill="#e61f26" d="M 918.839844 896.335938 C 960.207031 896.335938 993.730469 929.890625 993.730469 971.230469 C 993.730469 998.289062 979.417969 1021.988281 957.917969 1035.140625 L 957.917969 1106.078125 C 957.917969 1124.660156 942.726562 1139.855469 924.144531 1139.855469 L 913.535156 1139.855469 C 894.984375 1139.855469 879.761719 1124.660156 879.761719 1106.078125 L 879.761719 1035.140625 C 858.296875 1021.988281 843.953125 998.289062 843.953125 971.230469 C 843.953125 929.890625 877.472656 896.335938 918.839844 896.335938 Z M 679.046875 1226.804688 C 684.476562 1228.152344 690.15625 1228.875 696.027344 1228.875 L 1141.65625 1228.875 C 1180.542969 1228.875 1212.054688 1197.359375 1212.054688 1158.46875 L 1212.054688 877.722656 C 1212.054688 841.433594 1184.621094 811.582031 1149.40625 807.753906 C 1146.863281 807.472656 1144.289062 807.316406 1141.65625 807.316406 L 681.398438 807.316406 L 694.015625 827.308594 C 705.820312 845.078125 714.167969 864.539062 722.546875 884.34375 C 740.5 926.75 749.601562 971.765625 749.601562 1018.09375 C 749.601562 1064.457031 740.5 1109.5 722.578125 1151.90625 C 711.21875 1178.777344 696.621094 1203.824219 679.046875 1226.804688 " fill-opacity="1" fill-rule="nonzero"/><path fill="#e61f26" d="M 742.730469 648.203125 C 742.730469 643.179688 742.667969 638.0625 742.792969 632.914062 C 743.640625 592.109375 741.097656 488.742188 746.214844 448.441406 C 756.632812 366.640625 833.8125 294.945312 933.058594 302.542969 C 1021.285156 309.257812 1090.242188 380.984375 1094.355469 467.429688 C 1096.144531 504.847656 1094.917969 604.507812 1095.078125 641.957031 C 1095.078125 644.058594 1095.078125 646.128906 1095.078125 648.203125 L 1214.566406 648.203125 C 1214.628906 622.558594 1214.910156 534.320312 1214.410156 508.207031 C 1213.90625 482.121094 1214.910156 455.660156 1210.671875 430.109375 C 1182.738281 261.234375 1019.058594 151.808594 852.613281 189.601562 C 723.804688 218.859375 628.511719 332.894531 623.773438 464.855469 C 622.328125 505.222656 623.304688 607.773438 623.335938 648.203125 L 742.730469 648.203125 " fill-opacity="1" fill-rule="nonzero"/><g clip-path="url(#96f42b46e1)"><path fill="#e61f26" d="M 405.949219 1239.609375 C 348.480469 1239.609375 294.402344 1217.949219 253.066406 1178.464844 L 249.332031 1174.695312 C 207.492188 1132.855469 184.453125 1077.230469 184.453125 1018.09375 C 184.453125 959.238281 207.210938 903.929688 248.546875 862.183594 L 248.640625 862.121094 L 249.363281 861.398438 C 291.105469 819.621094 346.722656 796.609375 405.949219 796.609375 C 463.355469 796.609375 517.433594 818.300781 558.804688 857.820312 L 566.242188 865.226562 C 605.726562 906.566406 627.414062 960.652344 627.414062 1018.09375 C 627.414062 1077.265625 604.375 1132.886719 562.539062 1174.726562 C 520.699219 1216.570312 465.082031 1239.609375 405.949219 1239.609375 Z M 671.355469 1130.25 C 686.390625 1094.714844 694.015625 1056.984375 694.015625 1018.09375 C 694.015625 979.265625 686.390625 941.535156 671.355469 906.035156 C 658.457031 875.617188 640.660156 847.933594 618.34375 823.605469 L 618.5625 823.355469 L 609.617188 814.410156 C 583.160156 787.949219 552.367188 767.199219 518.0625 752.664062 C 482.566406 737.628906 444.839844 730.035156 405.949219 730.035156 C 367.125 730.035156 329.429688 737.660156 293.898438 752.664062 C 260.097656 766.980469 229.683594 787.382812 203.472656 813.277344 L 203.410156 813.339844 L 202.25 814.472656 C 175.824219 840.933594 155.042969 871.757812 140.542969 906.035156 C 125.507812 941.566406 117.882812 979.265625 117.882812 1018.09375 C 117.882812 1056.984375 125.507812 1094.683594 140.542969 1130.21875 C 155.042969 1164.527344 175.824219 1195.351562 202.25 1221.78125 L 211.257812 1230.789062 L 211.507812 1230.539062 C 235.832031 1252.855469 263.484375 1270.621094 293.867188 1283.492188 C 329.398438 1298.558594 367.125 1306.15625 405.949219 1306.15625 C 444.839844 1306.15625 482.566406 1298.558594 518.09375 1283.523438 C 552.398438 1268.988281 583.191406 1248.242188 609.648438 1221.78125 C 636.078125 1195.351562 656.855469 1164.527344 671.355469 1130.25 " fill-opacity="1" fill-rule="nonzero"/></g><path fill="#e61f26" d="M 525.753906 906.695312 C 520.101562 902.488281 513.386719 900.289062 506.386719 900.289062 C 496.15625 900.289062 486.363281 905.1875 480.242188 913.441406 L 372.679688 1059.089844 L 309.90625 1011 C 304.164062 1006.574219 297.351562 1004.253906 290.132812 1004.253906 C 279.933594 1004.253906 270.546875 1008.929688 264.363281 1017.027344 C 259.058594 1023.933594 256.800781 1032.472656 257.929688 1041.070312 C 259.089844 1049.671875 263.515625 1057.300781 270.421875 1062.542969 L 359.464844 1130.8125 C 365.148438 1135.144531 371.957031 1137.46875 379.144531 1137.46875 C 389.378906 1137.46875 398.792969 1132.824219 404.976562 1124.753906 L 405.195312 1124.441406 L 405.792969 1123.5625 L 532.375 952.082031 C 537.554688 945.082031 539.71875 936.511719 538.433594 927.914062 C 537.175781 919.34375 532.65625 911.808594 525.753906 906.695312 " fill-opacity="1" fill-rule="nonzero"/></svg>