<svg xmlns="http://www.w3.org/2000/svg" xmlns:xlink="http://www.w3.org/1999/xlink" width="2000" zoomAndPan="magnify" viewBox="0 0 1500 1499.999933" height="2000" preserveAspectRatio="xMidYMid meet" version="1.0"><defs><clipPath id="38c6b8bd70"><path d="M 119.988281 204 L 1379.988281 204 L 1379.988281 1318.414062 L 119.988281 1318.414062 Z M 119.988281 204 " clip-rule="nonzero"/></clipPath></defs><g clip-path="url(#38c6b8bd70)"><path fill="#e61f26" d="M 1379.988281 990.273438 C 1379.988281 990.273438 1379.988281 1282.253906 1379.988281 1283.242188 C 1379.988281 1301.769531 1364.425781 1318.074219 1345.402344 1318.074219 L 1242.625 1318.074219 C 1242.625 1318.074219 1242.625 1190.363281 1242.625 1189.375 C 1242.625 1161.953125 1199.882812 1161.707031 1199.882812 1189.375 L 1199.882812 1318.074219 L 985.683594 1318.074219 L 985.683594 954.945312 C 991.613281 949.265625 1022.25 923.574219 1058.8125 869.722656 C 1088.460938 826 1109.707031 779.066406 1117.859375 728.671875 C 1126.261719 731.140625 1187.285156 747.445312 1197.167969 750.164062 C 1305.132812 780.054688 1379.988281 878.367188 1379.988281 990.273438 Z M 613.613281 849.714844 C 619.542969 792.652344 583.964844 742.257812 524.425781 741.269531 L 368.285156 741.269531 C 308.742188 742.011719 272.917969 792.652344 278.847656 849.714844 L 321.589844 849.714844 L 321.589844 830.691406 C 321.589844 804.753906 342.589844 784.003906 368.285156 784.003906 L 524.425781 784.003906 C 550.121094 784.003906 571.121094 805.003906 571.121094 830.691406 L 571.121094 849.714844 Z M 200.53125 664.199219 L 296.636719 664.199219 L 296.636719 524.875 L 377.179688 524.875 L 248.707031 360.851562 L 119.988281 524.875 L 200.53125 524.875 Z M 1006.4375 430.019531 C 950.355469 427.054688 868.332031 465.835938 835.71875 513.511719 L 814.71875 540.4375 C 860.425781 679.019531 1056.09375 684.699219 1110.941406 549.824219 L 1089.449219 507.582031 C 1072.15625 473.246094 1042.261719 445.085938 1006.4375 430.019531 Z M 1010.636719 392.964844 C 1028.671875 396.917969 1050.90625 409.761719 1076.355469 431.007812 C 1100.8125 452.992188 1114.894531 475.964844 1122.554688 491.03125 C 1187.035156 417.667969 1177.648438 304.28125 1103.285156 243.019531 C 1029.167969 181.511719 916.011719 195.589844 857.953125 269.453125 C 739.613281 266.734375 734.425781 393.457031 806.566406 490.785156 C 849.308594 430.019531 945.167969 389.257812 1010.636719 392.964844 Z M 558.023438 1098.960938 L 334.191406 1098.960938 C 322.082031 1166.402344 224.25 1166.152344 212.390625 1098.714844 C 177.058594 1096.246094 145.4375 1080.4375 122.460938 1056.226562 L 122.460938 1294.113281 C 122.460938 1307.453125 133.332031 1318.320312 146.671875 1318.320312 L 745.046875 1318.320312 C 758.636719 1318.320312 769.261719 1307.453125 769.261719 1294.113281 L 769.261719 1056.226562 C 746.285156 1080.4375 714.90625 1096.492188 679.332031 1098.714844 C 667.71875 1166.152344 570.132812 1166.402344 558.023438 1098.960938 Z M 497.25 664.199219 L 593.355469 664.199219 L 593.355469 408.773438 L 673.894531 408.773438 L 545.179688 244.75 L 416.460938 408.773438 L 497 408.773438 L 497 664.199219 Z M 844.367188 826.988281 C 828.800781 796.605469 816.203125 762.265625 811.011719 728.671875 C 757.15625 743.738281 688.226562 756.832031 644.988281 793.640625 C 650.671875 810.683594 650.917969 831.433594 650.425781 849.714844 L 745.046875 849.714844 C 778.894531 849.714844 806.320312 877.132812 806.320312 910.976562 L 806.320312 1293.867188 C 806.320312 1302.511719 804.589844 1310.664062 801.378906 1318.074219 L 942.941406 1318.074219 L 942.941406 955.441406 C 929.847656 950.746094 862.894531 867.253906 844.367188 826.988281 Z M 298.367188 1088.09375 L 298.367188 1035.476562 C 298.121094 1003.363281 248.953125 1002.871094 248.707031 1035.476562 C 248.707031 1035.476562 248.707031 1088.339844 248.707031 1088.339844 C 249.203125 1120.699219 297.871094 1120.699219 298.367188 1088.09375 Z M 1081.789062 719.039062 C 1071.660156 708.414062 1056.835938 682.726562 1052.882812 664.199219 C 998.53125 692.851562 931.082031 691.863281 875.988281 664.445312 C 872.035156 683.464844 856.472656 709.402344 846.589844 719.039062 C 854 768.441406 875.742188 813.402344 903.660156 853.914062 C 908.847656 861.078125 959.988281 928.019531 964.191406 924.5625 C 964.929688 923.820312 997.296875 894.917969 1027.929688 848.972656 C 1053.132812 812.90625 1075.367188 765.476562 1081.789062 719.039062 Z M 745.046875 886.769531 L 146.917969 886.769531 C 133.578125 886.769531 122.707031 897.636719 122.707031 910.976562 L 122.707031 962.851562 C 122.707031 1013.984375 161.742188 1056.226562 211.648438 1061.167969 L 211.648438 1035.476562 C 211.648438 1002.375 239.320312 973.472656 273.414062 973.722656 C 307.507812 973.722656 335.179688 1001.386719 335.179688 1035.476562 L 335.179688 1061.910156 L 556.789062 1061.910156 L 556.789062 1035.476562 C 556.542969 1002.128906 584.460938 973.472656 618.554688 973.722656 C 652.648438 973.722656 680.320312 1001.386719 680.320312 1035.476562 L 680.320312 1061.414062 C 730.226562 1056.472656 769.261719 1014.234375 769.261719 963.097656 L 769.261719 911.222656 C 769.507812 897.636719 758.636719 886.769531 745.046875 886.769531 Z M 643.507812 1088.09375 L 643.507812 1035.476562 C 643.261719 1003.363281 594.09375 1002.871094 593.847656 1035.476562 C 593.847656 1035.476562 593.847656 1088.339844 593.847656 1088.339844 C 594.589844 1120.699219 643.011719 1120.699219 643.507812 1088.09375 Z M 643.507812 1088.09375 " fill-opacity="1" fill-rule="nonzero"/></g></svg>